<svg width="1400" height="380" viewBox="0 0 1400 380" xmlns="http://www.w3.org/2000/svg">
<defs>
  <radialGradient id="bgGlow" cx="78%" cy="45%" r="65%">
    <stop offset="0%" stop-color="#161616"/>
    <stop offset="100%" stop-color="#0a0a0a"/>
  </radialGradient>
  <pattern id="dotGrid" width="26" height="26" patternUnits="userSpaceOnUse">
    <circle cx="1.2" cy="1.2" r="1.2" fill="#1c1c1c"/>
  </pattern>
  <filter id="softGlow" x="-50%" y="-50%" width="200%" height="200%">
    <feGaussianBlur stdDeviation="2.2" result="blur"/>
    <feMerge>
      <feMergeNode in="blur"/>
      <feMergeNode in="SourceGraphic"/>
    </feMerge>
  </filter>
</defs>
<rect width="1400" height="380" fill="url(#bgGlow)"/><rect width="1400" height="380" fill="url(#dotGrid)"/><rect x="0.5" y="0.5" width="1399" height="379" fill="none" stroke="#232323" stroke-width="1"/><g id="edges"><line x1="780.0" y1="40.0" x2="940.0" y2="125.7" stroke="#8a8a8a" stroke-width="1" opacity="0.07"/><line x1="780.0" y1="40.0" x2="940.0" y2="168.6" stroke="#8a8a8a" stroke-width="1" opacity="0.19"/><line x1="780.0" y1="40.0" x2="940.0" y2="254.3" stroke="#8a8a8a" stroke-width="1" opacity="0.08"/><line x1="780.0" y1="115.0" x2="940.0" y2="40.0" stroke="#8a8a8a" stroke-width="1" opacity="0.07"/><line x1="780.0" y1="115.0" x2="940.0" y2="211.4" stroke="#8a8a8a" stroke-width="1" opacity="0.13"/><line x1="780.0" y1="115.0" x2="940.0" y2="82.9" stroke="#8a8a8a" stroke-width="1" opacity="0.1"/><line x1="780.0" y1="115.0" x2="940.0" y2="340.0" stroke="#8a8a8a" stroke-width="1" opacity="0.15"/><line x1="780.0" y1="190.0" x2="940.0" y2="82.9" stroke="#8a8a8a" stroke-width="1" opacity="0.16"/><line x1="780.0" y1="190.0" x2="940.0" y2="340.0" stroke="#8a8a8a" stroke-width="1" opacity="0.15"/><line x1="780.0" y1="265.0" x2="940.0" y2="297.1" stroke="#8a8a8a" stroke-width="1" opacity="0.22"/><line x1="780.0" y1="265.0" x2="940.0" y2="40.0" stroke="#8a8a8a" stroke-width="1" opacity="0.07"/><line x1="780.0" y1="340.0" x2="940.0" y2="211.4" stroke="#8a8a8a" stroke-width="1" opacity="0.08"/><line x1="780.0" y1="340.0" x2="940.0" y2="168.6" stroke="#8a8a8a" stroke-width="1" opacity="0.08"/><line x1="940.0" y1="40.0" x2="1100.0" y2="125.7" stroke="#8a8a8a" stroke-width="1" opacity="0.15"/><line x1="940.0" y1="40.0" x2="1100.0" y2="40.0" stroke="#8a8a8a" stroke-width="1" opacity="0.09"/><line x1="940.0" y1="40.0" x2="1100.0" y2="211.4" stroke="#8a8a8a" stroke-width="1" opacity="0.08"/><line x1="940.0" y1="82.9" x2="1100.0" y2="82.9" stroke="#8a8a8a" stroke-width="1" opacity="0.09"/><line x1="940.0" y1="82.9" x2="1100.0" y2="211.4" stroke="#8a8a8a" stroke-width="1" opacity="0.17"/><line x1="940.0" y1="82.9" x2="1100.0" y2="40.0" stroke="#8a8a8a" stroke-width="1" opacity="0.13"/><line x1="940.0" y1="82.9" x2="1100.0" y2="297.1" stroke="#8a8a8a" stroke-width="1" opacity="0.11"/><line x1="940.0" y1="125.7" x2="1100.0" y2="340.0" stroke="#8a8a8a" stroke-width="1" opacity="0.19"/><line x1="940.0" y1="125.7" x2="1100.0" y2="125.7" stroke="#8a8a8a" stroke-width="1" opacity="0.17"/><line x1="940.0" y1="125.7" x2="1100.0" y2="297.1" stroke="#8a8a8a" stroke-width="1" opacity="0.1"/><line x1="940.0" y1="125.7" x2="1100.0" y2="82.9" stroke="#8a8a8a" stroke-width="1" opacity="0.15"/><line x1="940.0" y1="168.6" x2="1100.0" y2="340.0" stroke="#8a8a8a" stroke-width="1" opacity="0.11"/><line x1="940.0" y1="168.6" x2="1100.0" y2="125.7" stroke="#8a8a8a" stroke-width="1" opacity="0.22"/><line x1="940.0" y1="168.6" x2="1100.0" y2="254.3" stroke="#8a8a8a" stroke-width="1" opacity="0.08"/><line x1="940.0" y1="168.6" x2="1100.0" y2="168.6" stroke="#8a8a8a" stroke-width="1" opacity="0.13"/><line x1="940.0" y1="211.4" x2="1100.0" y2="125.7" stroke="#8a8a8a" stroke-width="1" opacity="0.07"/><line x1="940.0" y1="211.4" x2="1100.0" y2="168.6" stroke="#8a8a8a" stroke-width="1" opacity="0.17"/><line x1="940.0" y1="211.4" x2="1100.0" y2="297.1" stroke="#8a8a8a" stroke-width="1" opacity="0.18"/><line x1="940.0" y1="254.3" x2="1100.0" y2="254.3" stroke="#8a8a8a" stroke-width="1" opacity="0.16"/><line x1="940.0" y1="254.3" x2="1100.0" y2="125.7" stroke="#8a8a8a" stroke-width="1" opacity="0.15"/><line x1="940.0" y1="254.3" x2="1100.0" y2="340.0" stroke="#8a8a8a" stroke-width="1" opacity="0.13"/><line x1="940.0" y1="254.3" x2="1100.0" y2="297.1" stroke="#8a8a8a" stroke-width="1" opacity="0.19"/><line x1="940.0" y1="297.1" x2="1100.0" y2="340.0" stroke="#8a8a8a" stroke-width="1" opacity="0.07"/><line x1="940.0" y1="297.1" x2="1100.0" y2="254.3" stroke="#8a8a8a" stroke-width="1" opacity="0.18"/><line x1="940.0" y1="297.1" x2="1100.0" y2="297.1" stroke="#8a8a8a" stroke-width="1" opacity="0.11"/><line x1="940.0" y1="340.0" x2="1100.0" y2="340.0" stroke="#8a8a8a" stroke-width="1" opacity="0.2"/><line x1="940.0" y1="340.0" x2="1100.0" y2="125.7" stroke="#8a8a8a" stroke-width="1" opacity="0.12"/><line x1="940.0" y1="340.0" x2="1100.0" y2="254.3" stroke="#8a8a8a" stroke-width="1" opacity="0.21"/><line x1="940.0" y1="340.0" x2="1100.0" y2="168.6" stroke="#8a8a8a" stroke-width="1" opacity="0.12"/><line x1="1100.0" y1="40.0" x2="1260.0" y2="40.0" stroke="#8a8a8a" stroke-width="1" opacity="0.18"/><line x1="1100.0" y1="40.0" x2="1260.0" y2="140.0" stroke="#8a8a8a" stroke-width="1" opacity="0.08"/><line x1="1100.0" y1="40.0" x2="1260.0" y2="340.0" stroke="#8a8a8a" stroke-width="1" opacity="0.1"/><line x1="1100.0" y1="40.0" x2="1260.0" y2="240.0" stroke="#8a8a8a" stroke-width="1" opacity="0.12"/><line x1="1100.0" y1="82.9" x2="1260.0" y2="40.0" stroke="#8a8a8a" stroke-width="1" opacity="0.12"/><line x1="1100.0" y1="82.9" x2="1260.0" y2="340.0" stroke="#8a8a8a" stroke-width="1" opacity="0.1"/><line x1="1100.0" y1="82.9" x2="1260.0" y2="140.0" stroke="#8a8a8a" stroke-width="1" opacity="0.08"/><line x1="1100.0" y1="125.7" x2="1260.0" y2="240.0" stroke="#8a8a8a" stroke-width="1" opacity="0.22"/><line x1="1100.0" y1="125.7" x2="1260.0" y2="340.0" stroke="#8a8a8a" stroke-width="1" opacity="0.17"/><line x1="1100.0" y1="125.7" x2="1260.0" y2="140.0" stroke="#8a8a8a" stroke-width="1" opacity="0.12"/><line x1="1100.0" y1="168.6" x2="1260.0" y2="140.0" stroke="#8a8a8a" stroke-width="1" opacity="0.09"/><line x1="1100.0" y1="168.6" x2="1260.0" y2="40.0" stroke="#8a8a8a" stroke-width="1" opacity="0.1"/><line x1="1100.0" y1="211.4" x2="1260.0" y2="40.0" stroke="#8a8a8a" stroke-width="1" opacity="0.19"/><line x1="1100.0" y1="211.4" x2="1260.0" y2="140.0" stroke="#8a8a8a" stroke-width="1" opacity="0.09"/><line x1="1100.0" y1="254.3" x2="1260.0" y2="40.0" stroke="#8a8a8a" stroke-width="1" opacity="0.15"/><line x1="1100.0" y1="254.3" x2="1260.0" y2="340.0" stroke="#8a8a8a" stroke-width="1" opacity="0.16"/><line x1="1100.0" y1="254.3" x2="1260.0" y2="140.0" stroke="#8a8a8a" stroke-width="1" opacity="0.11"/><line x1="1100.0" y1="297.1" x2="1260.0" y2="40.0" stroke="#8a8a8a" stroke-width="1" opacity="0.2"/><line x1="1100.0" y1="297.1" x2="1260.0" y2="140.0" stroke="#8a8a8a" stroke-width="1" opacity="0.18"/><line x1="1100.0" y1="340.0" x2="1260.0" y2="340.0" stroke="#8a8a8a" stroke-width="1" opacity="0.08"/><line x1="1100.0" y1="340.0" x2="1260.0" y2="140.0" stroke="#8a8a8a" stroke-width="1" opacity="0.16"/><line x1="1100.0" y1="340.0" x2="1260.0" y2="240.0" stroke="#8a8a8a" stroke-width="1" opacity="0.07"/><line x1="1100.0" y1="340.0" x2="1260.0" y2="40.0" stroke="#8a8a8a" stroke-width="1" opacity="0.07"/></g><g id="highlight-path"><line x1="780.0" y1="115.0" x2="940.0" y2="340.0" stroke="#d8d8d8" stroke-width="1.4" opacity="0.55" filter="url(#softGlow)"/><line x1="940.0" y1="340.0" x2="1100.0" y2="125.7" stroke="#d8d8d8" stroke-width="1.4" opacity="0.55" filter="url(#softGlow)"/><line x1="1100.0" y1="125.7" x2="1260.0" y2="40.0" stroke="#d8d8d8" stroke-width="1.4" opacity="0.55" filter="url(#softGlow)"/></g><g id="nodes"><circle cx="780.0" cy="40.0" r="4.2" fill="#c9c9c9" opacity="0.9"/><circle cx="780.0" cy="40.0" r="7.2" fill="none" stroke="#3a3a3a" stroke-width="1" opacity="0.5"/><circle cx="780.0" cy="115.0" r="4.2" fill="#c9c9c9" opacity="0.9"/><circle cx="780.0" cy="115.0" r="7.2" fill="none" stroke="#3a3a3a" stroke-width="1" opacity="0.5"/><circle cx="780.0" cy="190.0" r="4.2" fill="#c9c9c9" opacity="0.9"/><circle cx="780.0" cy="190.0" r="7.2" fill="none" stroke="#3a3a3a" stroke-width="1" opacity="0.5"/><circle cx="780.0" cy="265.0" r="4.2" fill="#c9c9c9" opacity="0.9"/><circle cx="780.0" cy="265.0" r="7.2" fill="none" stroke="#3a3a3a" stroke-width="1" opacity="0.5"/><circle cx="780.0" cy="340.0" r="4.2" fill="#c9c9c9" opacity="0.9"/><circle cx="780.0" cy="340.0" r="7.2" fill="none" stroke="#3a3a3a" stroke-width="1" opacity="0.5"/><circle cx="940.0" cy="40.0" r="3.4" fill="#707070" opacity="0.9"/><circle cx="940.0" cy="40.0" r="6.4" fill="none" stroke="#3a3a3a" stroke-width="1" opacity="0.5"/><circle cx="940.0" cy="82.9" r="3.4" fill="#707070" opacity="0.9"/><circle cx="940.0" cy="82.9" r="6.4" fill="none" stroke="#3a3a3a" stroke-width="1" opacity="0.5"/><circle cx="940.0" cy="125.7" r="3.4" fill="#707070" opacity="0.9"/><circle cx="940.0" cy="125.7" r="6.4" fill="none" stroke="#3a3a3a" stroke-width="1" opacity="0.5"/><circle cx="940.0" cy="168.6" r="3.4" fill="#707070" opacity="0.9"/><circle cx="940.0" cy="168.6" r="6.4" fill="none" stroke="#3a3a3a" stroke-width="1" opacity="0.5"/><circle cx="940.0" cy="211.4" r="3.4" fill="#707070" opacity="0.9"/><circle cx="940.0" cy="211.4" r="6.4" fill="none" stroke="#3a3a3a" stroke-width="1" opacity="0.5"/><circle cx="940.0" cy="254.3" r="3.4" fill="#707070" opacity="0.9"/><circle cx="940.0" cy="254.3" r="6.4" fill="none" stroke="#3a3a3a" stroke-width="1" opacity="0.5"/><circle cx="940.0" cy="297.1" r="3.4" fill="#707070" opacity="0.9"/><circle cx="940.0" cy="297.1" r="6.4" fill="none" stroke="#3a3a3a" stroke-width="1" opacity="0.5"/><circle cx="940.0" cy="340.0" r="3.4" fill="#707070" opacity="0.9"/><circle cx="940.0" cy="340.0" r="6.4" fill="none" stroke="#3a3a3a" stroke-width="1" opacity="0.5"/><circle cx="1100.0" cy="40.0" r="3.4" fill="#707070" opacity="0.9"/><circle cx="1100.0" cy="40.0" r="6.4" fill="none" stroke="#3a3a3a" stroke-width="1" opacity="0.5"/><circle cx="1100.0" cy="82.9" r="3.4" fill="#707070" opacity="0.9"/><circle cx="1100.0" cy="82.9" r="6.4" fill="none" stroke="#3a3a3a" stroke-width="1" opacity="0.5"/><circle cx="1100.0" cy="125.7" r="3.4" fill="#707070" opacity="0.9"/><circle cx="1100.0" cy="125.7" r="6.4" fill="none" stroke="#3a3a3a" stroke-width="1" opacity="0.5"/><circle cx="1100.0" cy="168.6" r="3.4" fill="#707070" opacity="0.9"/><circle cx="1100.0" cy="168.6" r="6.4" fill="none" stroke="#3a3a3a" stroke-width="1" opacity="0.5"/><circle cx="1100.0" cy="211.4" r="3.4" fill="#707070" opacity="0.9"/><circle cx="1100.0" cy="211.4" r="6.4" fill="none" stroke="#3a3a3a" stroke-width="1" opacity="0.5"/><circle cx="1100.0" cy="254.3" r="3.4" fill="#707070" opacity="0.9"/><circle cx="1100.0" cy="254.3" r="6.4" fill="none" stroke="#3a3a3a" stroke-width="1" opacity="0.5"/><circle cx="1100.0" cy="297.1" r="3.4" fill="#707070" opacity="0.9"/><circle cx="1100.0" cy="297.1" r="6.4" fill="none" stroke="#3a3a3a" stroke-width="1" opacity="0.5"/><circle cx="1100.0" cy="340.0" r="3.4" fill="#707070" opacity="0.9"/><circle cx="1100.0" cy="340.0" r="6.4" fill="none" stroke="#3a3a3a" stroke-width="1" opacity="0.5"/><circle cx="1260.0" cy="40.0" r="4.2" fill="#c9c9c9" opacity="0.9"/><circle cx="1260.0" cy="40.0" r="7.2" fill="none" stroke="#3a3a3a" stroke-width="1" opacity="0.5"/><circle cx="1260.0" cy="140.0" r="4.2" fill="#c9c9c9" opacity="0.9"/><circle cx="1260.0" cy="140.0" r="7.2" fill="none" stroke="#3a3a3a" stroke-width="1" opacity="0.5"/><circle cx="1260.0" cy="240.0" r="4.2" fill="#c9c9c9" opacity="0.9"/><circle cx="1260.0" cy="240.0" r="7.2" fill="none" stroke="#3a3a3a" stroke-width="1" opacity="0.5"/><circle cx="1260.0" cy="340.0" r="4.2" fill="#c9c9c9" opacity="0.9"/><circle cx="1260.0" cy="340.0" r="7.2" fill="none" stroke="#3a3a3a" stroke-width="1" opacity="0.5"/></g>
<g font-family="JetBrains Mono, Consolas, monospace">
  <text x="70" y="140" font-size="13" letter-spacing="4" fill="#6f6f6f">SYSTEM.INIT // B.TECH AI &amp; DATA SCIENCE</text>
  <text x="70" y="195" font-size="48" font-weight="700" fill="#eaeaea">ABHANG PAWAR</text>
  <text x="70" y="230" font-size="15" letter-spacing="1" fill="#8f8f8f">AI &amp; Agentic Systems Engineer &#8226; LLMOps &#8226; Full-Stack</text>
  <line x1="70" y1="255" x2="330" y2="255" stroke="#2b2b2b" stroke-width="1"/>
  <text x="70" y="285" font-size="12" letter-spacing="2" fill="#5c5c5c">STATUS: BUILDING AGENTIC AI SYSTEMS</text>
</g>
<text x="1330" y="30" font-family="JetBrains Mono, monospace" font-size="10" fill="#4a4a4a" letter-spacing="1">NET.01</text><text x="30" y="360" font-family="JetBrains Mono, monospace" font-size="10" fill="#3f3f3f" letter-spacing="1">LAYERS: 4  NODES: 25</text></svg>